HIERARCHY
ROOT SpineBase
{
  OFFSET 0.000000 0.000000 0.000000
  CHANNELS 6 Xposition Yposition Zposition Zrotation Xrotation Yrotation
  JOINT SpineMid
  {
    OFFSET 0.000000 31.208306 0.000000
    CHANNELS 3 Zrotation Xrotation Yrotation
    JOINT SpineShoulder
    {
      OFFSET 0.254390 23.106002 -0.656697
      CHANNELS 3 Zrotation Xrotation Yrotation
      JOINT Neck
      {
        OFFSET 0.169308 7.622575 -0.534106
        CHANNELS 3 Zrotation Xrotation Yrotation
        JOINT Head
        {
          OFFSET 4.829143 11.775290 4.196283
          CHANNELS 3 Zrotation Xrotation Yrotation
          End Site
          {
            OFFSET 0 0 0
          }
        }
      }
      JOINT ShoulderLeft
      {
        OFFSET -7.035996 -4.099492 -14.626401
        CHANNELS 3 Zrotation Xrotation Yrotation
        JOINT ElbowLeft
        {
          OFFSET -1.142491 -22.842015 -6.718146
          CHANNELS 3 Zrotation Xrotation Yrotation
          JOINT WristLeft
          {
            OFFSET 8.368987 -18.444913 1.136933
            CHANNELS 3 Zrotation Xrotation Yrotation
            JOINT HandLeft
            {
              OFFSET -0.412878 -0.228012 4.054602
              CHANNELS 3 Zrotation Xrotation Yrotation
              JOINT HandTipLeft
              {
                OFFSET 4.841536 -7.531572 1.929655
                CHANNELS 3 Zrotation Xrotation Yrotation
                End Site
                {
                  OFFSET 0 0 0
                }
              }
              JOINT ThumbLeft
              {
                OFFSET -6.530468 -2.673761 -1.927504
                CHANNELS 3 Zrotation Xrotation Yrotation
                End Site
                {
                  OFFSET 0 0 0
                }
              }
            }
          }
        }
      }
      JOINT ShoulderRight
      {
        OFFSET 9.337240 -5.244030 16.776398
        CHANNELS 3 Zrotation Xrotation Yrotation
        JOINT ElbowRight
        {
          OFFSET 3.613588 -23.617871 1.716251
          CHANNELS 3 Zrotation Xrotation Yrotation
          JOINT WristRight
          {
            OFFSET -26.778538 -3.406940 -3.179238
            CHANNELS 3 Zrotation Xrotation Yrotation
            JOINT HandRight
            {
              OFFSET -0.578540 -6.393814 -1.101645
              CHANNELS 3 Zrotation Xrotation Yrotation
              JOINT HandTipRight
              {
                OFFSET -5.082695 -7.062934 3.431415
                CHANNELS 3 Zrotation Xrotation Yrotation
                End Site
                {
                  OFFSET 0 0 0
                }
              }
              JOINT ThumbRight
              {
                OFFSET 4.069947 -1.559109 -4.872898
                CHANNELS 3 Zrotation Xrotation Yrotation
                End Site
                {
                  OFFSET 0 0 0
                }
              }
            }
          }
        }
      }
    }
  }
  JOINT HipLeft
  {
    OFFSET -2.567367 2.335232 -10.313431
    CHANNELS 3 Zrotation Xrotation Yrotation
    JOINT KneeLeft
    {
      OFFSET -9.219721 -36.070258 -0.802568
      CHANNELS 3 Zrotation Xrotation Yrotation
      JOINT AnkleLeft
      {
        OFFSET -10.411663 -37.472613 4.801471
        CHANNELS 3 Zrotation Xrotation Yrotation
        JOINT FootLeft
        {
          OFFSET 9.933684 -3.732683 -7.813140
          CHANNELS 3 Zrotation Xrotation Yrotation
          End Site
          {
            OFFSET 0 0 0
          }
        }
      }
    }
  }
  JOINT HipRight
  {
    OFFSET 4.355688 -0.741102 3.047362
    CHANNELS 3 Zrotation Xrotation Yrotation
    JOINT KneeRight
    {
      OFFSET -2.338022 -36.572298 7.864129
      CHANNELS 3 Zrotation Xrotation Yrotation
      JOINT AnkleRight
      {
        OFFSET -8.895500 -29.999826 5.533808
        CHANNELS 3 Zrotation Xrotation Yrotation
        JOINT FootRight
        {
          OFFSET 9.739352 -3.830733 -7.910358
          CHANNELS 3 Zrotation Xrotation Yrotation
          End Site
          {
            OFFSET 0 0 0
          }
        }
      }
    }
  }
}
MOTION
Frames: 14
Frame Time: 0.033333
-76.656578 78.708527 319.018237 -0.000000 0.000000 -62.608527 -0.000000 0.000000 62.608527 -0.000000 0.000000 0.000000 -0.000000 0.000000 0.000000 0.000000 0.000000 0.000000 -0.000000 0.000000 0.000000 -0.000000 0.000000 0.000000 -0.000000 0.000000 0.000000 -0.000000 0.000000 0.000000 0.000000 0.000000 0.000000 0.000000 0.000000 0.000000 -0.000000 0.000000 0.000000 -0.000000 0.000000 0.000000 -0.000000 0.000000 0.000000 -0.000000 0.000000 0.000000 0.000000 0.000000 0.000000 0.000000 0.000000 0.000000 -0.000000 0.000000 62.608527 -0.000000 0.000000 0.000000 -0.000000 0.000000 0.000000 0.000000 0.000000 0.000000 -0.000000 0.000000 62.608527 -0.000000 0.000000 0.000000 -0.000000 0.000000 0.000000 0.000000 0.000000 0.000000
-76.508987 78.725214 319.086624 0.049641 0.031281 -62.627936 0.004956 -0.058465 62.627925 -0.000000 0.000000 0.000000 -0.000000 0.000000 0.000000 0.000000 0.000000 0.000000 -0.000000 0.000000 0.000000 0.620252 -0.899543 -0.363984 0.229284 20.063743 9.166809 -5.493834 -16.946714 -9.475122 0.000000 0.000000 0.000000 0.000000 0.000000 0.000000 -0.000000 0.000000 0.000000 -0.000000 0.000000 0.000000 -0.000000 0.000000 0.000000 -0.000000 0.000000 0.000000 0.000000 0.000000 0.000000 0.000000 0.000000 0.000000 0.004956 -0.058465 62.627925 -0.000000 0.000000 0.000000 -0.000000 0.000000 0.000000 0.000000 0.000000 0.000000 0.004956 -0.058465 62.627925 -0.000000 0.000000 0.000000 -0.000000 0.000000 0.000000 0.000000 0.000000 0.000000
-76.370898 78.741998 319.146984 0.106568 0.058103 -62.657881 0.002665 -0.121349 62.657830 -0.000000 0.000000 0.000000 -0.000000 0.000000 0.000000 0.000000 0.000000 0.000000 -0.000000 0.000000 0.000000 1.171132 -1.700003 -0.678058 -1.717363 33.146586 15.702266 -11.080293 -26.731512 -17.228267 0.000000 0.000000 0.000000 0.000000 0.000000 0.000000 -0.000000 0.000000 0.000000 -0.000000 0.000000 0.000000 -0.000000 0.000000 0.000000 -0.000000 0.000000 0.000000 0.000000 0.000000 0.000000 0.000000 0.000000 0.000000 0.002665 -0.121349 62.657830 -0.000000 0.000000 0.000000 -0.000000 0.000000 0.000000 0.000000 0.000000 0.000000 0.002665 -0.121349 62.657830 -0.000000 0.000000 0.000000 -0.000000 0.000000 0.000000 0.000000 0.000000 0.000000
-76.242311 78.758880 319.199317 0.170789 0.080461 -62.698434 -0.006839 -0.188669 62.698303 -0.000000 0.000000 0.000000 -0.000000 0.000000 0.000000 0.000000 0.000000 0.000000 -0.000000 0.000000 0.000000 1.645767 -2.387082 -0.940147 -4.145865 41.162425 20.398287 -15.471300 -31.955479 -22.764642 0.000000 0.000000 0.000000 0.000000 0.000000 0.000000 -0.000000 0.000000 0.000000 -0.000000 0.000000 0.000000 -0.000000 0.000000 0.000000 -0.000000 0.000000 0.000000 0.000000 0.000000 0.000000 0.000000 0.000000 0.000000 -0.006839 -0.188669 62.698303 -0.778934 0.208324 -0.156016 0.779504 -0.206183 0.158835 0.000000 0.000000 0.000000 -0.006839 -0.188669 62.698303 -0.000000 0.000000 0.000000 -0.000000 0.000000 0.000000 0.000000 0.000000 0.000000
-76.123225 78.775860 319.243623 0.242311 0.098349 -62.749575 -0.023517 -0.260449 62.749314 -0.000000 0.000000 0.000000 -0.000000 0.000000 0.000000 0.000000 0.000000 0.000000 -0.000000 0.000000 0.000000 2.038976 -2.949548 -1.149254 -6.334370 46.108171 23.690507 -18.483255 -34.860543 -26.376791 0.000000 0.000000 0.000000 0.000000 0.000000 0.000000 -0.000000 0.000000 0.000000 -0.000000 0.000000 0.000000 -0.000000 0.000000 0.000000 -0.000000 0.000000 0.000000 0.000000 0.000000 0.000000 0.000000 0.000000 0.000000 -0.023517 -0.260449 62.749314 -0.982332 0.273743 -0.199171 0.983289 -0.270287 0.203837 0.000000 0.000000 0.000000 -0.023517 -0.260449 62.749314 -0.000000 0.000000 0.000000 -0.000000 0.000000 0.000000 0.000000 0.000000 0.000000
-76.013642 78.792937 319.279901 0.321141 0.111761 -62.811193 -0.047327 -0.336723 62.810741 -0.000000 0.000000 0.000000 -0.000000 0.000000 0.000000 0.000000 0.000000 0.000000 -0.000000 0.000000 0.000000 2.347403 -3.379669 -1.305357 -7.991648 49.139119 25.798756 -20.295950 -36.651156 -28.480499 0.000000 0.000000 0.000000 0.000000 0.000000 0.000000 -0.000000 0.000000 0.000000 -0.000000 0.000000 0.000000 -0.000000 0.000000 0.000000 -0.000000 0.000000 0.000000 0.000000 0.000000 0.000000 0.000000 0.000000 0.000000 -0.047327 -0.336723 62.810741 -1.157324 0.336975 -0.237942 1.158733 -0.332097 0.244704 0.000000 0.000000 0.000000 -0.047327 -0.336723 62.810741 -0.000000 0.000000 0.000000 -0.000000 0.000000 0.000000 0.000000 0.000000 0.000000
-75.911557 78.813999 319.324144 0.426880 0.092437 -62.937835 -0.111899 -0.422196 62.937078 -0.000000 0.000000 0.000000 -0.000000 0.000000 0.000000 0.000000 0.000000 0.000000 -0.000000 0.000000 0.000000 2.264570 -3.611082 -1.412510 -8.387877 50.607160 26.223592 -21.368109 -38.150672 -29.593367 0.000000 0.000000 0.000000 0.000000 0.000000 0.000000 -0.000000 0.000000 0.000000 -0.000000 0.000000 0.000000 -0.000000 0.000000 0.000000 -0.000000 0.000000 0.000000 0.000000 0.000000 0.000000 0.000000 0.000000 0.000000 -0.111899 -0.422196 62.937078 -1.345980 0.383577 -0.273766 1.347826 -0.377036 0.282707 0.000000 0.000000 0.000000 -0.111899 -0.422196 62.937078 -0.735013 0.331990 -0.231578 0.736361 -0.328989 0.235822 0.000000 0.000000 0.000000
-75.817311 78.828594 319.343840 0.536213 0.102563 -62.995119 -0.152103 -0.524317 62.993943 -0.000000 0.000000 0.000000 -0.000000 0.000000 0.000000 0.000000 0.000000 0.000000 -0.000000 0.000000 0.000000 2.062843 -3.428380 -1.353494 -7.096887 49.108767 24.220215 -20.456856 -38.233420 -28.450949 0.000000 0.000000 0.000000 0.000000 0.000000 0.000000 -0.000000 0.000000 0.000000 -0.000000 0.000000 0.000000 -0.000000 0.000000 0.000000 -0.000000 0.000000 0.000000 0.000000 0.000000 0.000000 0.000000 0.000000 0.000000 -0.152103 -0.524317 62.993943 -1.483914 0.436733 -0.304890 1.486258 -0.428685 0.316106 0.000000 0.000000 0.000000 -0.152103 -0.524317 62.993943 -0.874157 0.384807 -0.271971 0.875993 -0.380608 0.277816 0.000000 0.000000 0.000000
-75.737632 78.844036 319.358453 0.630632 0.106531 -63.025455 -0.191121 -0.610343 63.023850 -0.000000 0.000000 0.000000 -0.000000 0.000000 0.000000 0.000000 0.000000 0.000000 0.766552 0.295664 -0.242120 1.811679 -4.233445 -1.274190 -8.529783 51.284412 25.413280 -20.352381 -39.735808 -28.294062 0.000000 0.000000 0.000000 0.000000 0.000000 0.000000 0.495615 -0.743106 -0.074385 -0.496621 0.742434 0.080817 -0.000000 0.000000 0.000000 -0.000000 0.000000 0.000000 0.000000 0.000000 0.000000 0.000000 0.000000 0.000000 -0.191121 -0.610343 63.023850 -1.555369 0.497300 -0.329669 1.558261 -0.488160 0.343058 0.000000 0.000000 0.000000 -0.191121 -0.610343 63.023850 -0.979409 0.416251 -0.299976 0.981600 -0.411056 0.307055 0.000000 0.000000 0.000000
-75.674594 78.867947 319.332748 0.709111 0.141083 -63.103719 -0.194980 -0.696224 63.101661 -0.000000 0.000000 0.000000 -0.000000 0.000000 0.000000 0.000000 0.000000 0.000000 0.859052 0.389093 -0.274870 1.929020 -4.295918 -1.204379 -8.674485 50.879168 25.462895 -18.012561 -39.894335 -26.138507 0.000000 0.000000 0.000000 0.000000 0.000000 0.000000 0.668195 -0.560288 -0.033860 -0.668558 0.559855 0.040394 -0.000000 0.000000 0.000000 -0.000000 0.000000 0.000000 0.000000 0.000000 0.000000 0.000000 0.000000 0.000000 -0.194980 -0.696224 63.101661 -1.576808 0.575127 -0.352815 1.580396 -0.565190 0.368525 0.000000 0.000000 0.000000 -0.194980 -0.696224 63.101661 -1.063642 0.400137 -0.310486 1.065820 -0.394299 0.317867 0.000000 0.000000 0.000000
-75.621674 78.878975 319.334701 0.769614 0.134095 -63.250203 -0.226676 -0.747601 63.247823 -0.000000 0.000000 0.000000 -0.000000 0.000000 0.000000 0.000000 0.000000 0.000000 0.929589 0.451524 -0.299432 1.898806 -4.003651 -1.024162 -7.884968 48.812166 24.433392 -14.938515 -39.086334 -23.329865 0.000000 0.000000 0.000000 0.000000 0.000000 0.000000 0.861375 -0.344817 0.012412 -0.861316 0.344965 -0.007227 -0.000000 0.000000 0.000000 -0.000000 0.000000 0.000000 0.000000 0.000000 0.000000 0.000000 0.000000 0.000000 -0.226676 -0.747601 63.247823 -1.537692 0.622148 -0.360461 1.541663 -0.612238 0.377047 0.000000 0.000000 0.000000 -0.226676 -0.747601 63.247823 -1.149474 0.388573 -0.322603 1.151669 -0.382016 0.330341 0.000000 0.000000 0.000000
-75.574726 78.889543 319.344431 0.819344 0.113579 -63.405590 -0.265259 -0.783496 63.402965 -0.000000 0.000000 0.000000 -0.000000 0.000000 0.000000 0.000000 0.000000 0.000000 0.922549 0.541196 -0.302468 1.768591 -3.512870 -0.785781 -6.150754 44.845196 21.885798 -10.439453 -36.809693 -18.815482 0.000000 0.000000 0.000000 0.000000 0.000000 0.000000 1.025463 -0.138000 0.054561 -1.025334 0.138954 -0.052083 -0.000000 0.000000 0.000000 -0.000000 0.000000 0.000000 0.000000 0.000000 0.000000 0.000000 0.000000 0.000000 -0.265259 -0.783496 63.402965 -1.512950 0.656487 -0.366530 1.517215 -0.646566 0.383759 0.000000 0.000000 0.000000 -0.265259 -0.783496 63.402965 -1.208598 0.358176 -0.324547 1.210630 -0.351245 0.332036 0.000000 0.000000 0.000000
-75.536581 78.905713 319.327998 0.864356 0.110495 -63.598907 -0.285395 -0.823332 63.596023 -0.000000 0.000000 0.000000 -0.000000 0.000000 0.000000 0.000000 0.000000 0.000000 0.904705 0.679450 -0.305028 1.113212 -2.746960 -0.455840 -3.658496 38.669559 18.504562 -7.803065 -32.433602 -15.923919 0.000000 0.000000 0.000000 0.000000 0.000000 0.000000 1.149675 -0.014772 0.081309 -1.149653 0.016400 -0.080997 -0.000000 0.000000 0.000000 -0.000000 0.000000 0.000000 0.000000 0.000000 0.000000 0.000000 0.000000 0.000000 -0.285395 -0.823332 63.596023 -1.499644 0.690698 -0.373963 1.504226 -0.680659 0.391939 0.000000 0.000000 0.000000 -0.285395 -0.823332 63.596023 -1.258619 0.342757 -0.329154 1.260589 -0.335439 0.336609 0.000000 0.000000 0.000000
-75.530312 78.924547 319.306721 0.875819 0.115758 -63.787745 -0.283022 -0.836876 63.784793 -0.000000 0.000000 0.000000 -0.000000 0.000000 0.000000 0.000000 0.000000 0.000000 0.869509 0.820983 -0.302510 0.248231 -1.772822 -0.047131 -0.954634 29.649350 13.512623 -5.067229 -25.254420 -11.669653 0.000000 0.000000 0.000000 0.000000 0.000000 0.000000 1.249461 0.079420 0.101919 -1.249601 -0.077178 -0.103627 -0.000000 0.000000 0.000000 -0.000000 0.000000 0.000000 0.000000 0.000000 0.000000 0.000000 0.000000 0.000000 -0.283022 -0.836876 63.784793 -1.477939 0.699418 -0.373647 1.482576 -0.689533 0.391590 0.000000 0.000000 0.000000 -0.283022 -0.836876 63.784793 -1.282546 0.313743 -0.325193 1.284325 -0.306381 0.332139 0.000000 0.000000 0.000000
